<?xml version="1.0" encoding="UTF-8"?>
<svg id="Capa_2" data-name="Capa 2" xmlns="http://www.w3.org/2000/svg" viewBox="0 0 57.56 57.56">
  <defs>
    <style>
      .cls-1 {
        fill: none;
      }

      .cls-1, .cls-2, .cls-3, .cls-4 {
        stroke: #313e72;
        stroke-miterlimit: 10;
        stroke-width: 1.5px;
      }

      .cls-5, .cls-2, .cls-4 {
        fill: #fcd6cd;
      }

      .cls-6, .cls-3 {
        fill: #313e72;
      }

      .cls-4 {
        stroke-linecap: round;
      }
    </style>
  </defs>
  <g id="HOME">
    <g id="Capa_4" data-name="Capa 4">
      <g>
        <circle class="cls-2" cx="28.78" cy="28.78" r="28.03"/>
        <path class="cls-4" d="m44.51,51.73V16.49S44.51.75,28.78.75s-15.74,15.74-15.74,15.74v35.24"/>
        <line class="cls-1" x1="13.04" y1="30.05" x2="44.51" y2="30.05"/>
        <line class="cls-1" x1="44.51" y1="49" x2="13.04" y2="49"/>
        <line class="cls-1" x1="13.21" y1="16.16" x2="44.68" y2="16.16"/>
        <path class="cls-3" d="m32.99,30s-.61,4.12-4.54,4.12-4.33-4.12-4.33-4.12"/>
        <line class="cls-2" x1="28.78" y1=".91" x2="28.78" y2="22.98"/>
        <line class="cls-2" x1="35.34" y1="16.16" x2="31.7" y2="23.53"/>
        <line class="cls-2" x1="44.19" y1="16.16" x2="34.58" y2="25.12"/>
        <line class="cls-2" x1="44.51" y1="24.03" x2="36.81" y2="27.06"/>
        <line class="cls-2" x1="22.22" y1="16.16" x2="25.8" y2="23.53"/>
        <line class="cls-2" x1="13.37" y1="16.16" x2="23" y2="24.99"/>
        <line class="cls-2" x1="13.37" y1="24.03" x2="20.44" y2="27.08"/>
        <line class="cls-2" x1="44.51" y1="36.44" x2="36.51" y2="32.87"/>
        <line class="cls-2" x1="44.51" y1="43.3" x2="34.36" y2="34.58"/>
        <line class="cls-2" x1="40.25" y1="48.94" x2="32.1" y2="35.88"/>
        <line class="cls-2" x1="28.45" y1="56.97" x2="28.6" y2="36.74"/>
        <line class="cls-2" x1="25.04" y1="35.95" x2="17.63" y2="48.94"/>
        <line class="cls-2" x1="13.04" y1="43.3" x2="22.91" y2="34.73"/>
        <line class="cls-2" x1="13.04" y1="36.37" x2="20.77" y2="32.99"/>
        <path class="cls-1" d="m39.24,30s-4.56-7.02-10.46-7.02-10.82,6.88-10.82,6.88c0,0,4.92,6.88,10.49,6.88s10.79-6.75,10.79-6.75Z"/>
        <g>
          <path class="cls-5" d="m22.88,27.9s5.57-5.57,11.47,0"/>
          <path class="cls-6" d="m22.88,27.9c.57-.96,1.44-1.72,2.42-2.28.98-.57,2.14-.91,3.32-.93,1.17-.02,2.38.26,3.35.88.52.25.93.67,1.36,1.02.39.4.73.85,1.03,1.31-.53-.21-.97-.49-1.45-.7-.49-.19-.93-.44-1.42-.56-.94-.33-1.89-.46-2.84-.45-1.92.01-3.8.74-5.76,1.71Z"/>
        </g>
      </g>
    </g>
  </g>
</svg>